# xmcd
#
# Track frame offsets:
#	151
#	11734
#	28994
#	44932
#	61653
#	76841
#	96731
#	115172
#	135417
#	153567
#	168263
#	181098
#	202897
#	216081
#
# Disc length: 3089 seconds
# Revision: 2
# Processed by: cddbd v1.5.2PL0 Copyright (c) Steve Scherf et al.
# Submitted via: dBpowerAMP V12.0
#
DISCID=bd0c0f0e
DTITLE=Frank Carillo - Bad Out There
DYEAR=2004
DGENRE=Blues
TTITLE0=Bad Out There
TTITLE1=Red Queen
TTITLE2=Chapel Street
TTITLE3=Last Plane
TTITLE4=Watcha Gonna Do (When the Levee Breaks)
TTITLE5=Just a Photograph
TTITLE6=Tail that Wagged the Dog
TTITLE7=Blame all my Troubles on the Moon
TTITLE8=Wrong Number
TTITLE9=With her Pajamas on
TTITLE10=The Bluebird is Gone
TTITLE11=All in Chains
TTITLE12=Delilah
TTITLE13=If you Don't
EXTD=
EXTT0=
EXTT1=
EXTT2=
EXTT3=
EXTT4=
EXTT5=
EXTT6=
EXTT7=
EXTT8=
EXTT9=
EXTT10=
EXTT11=
EXTT12=
EXTT13=
PLAYORDER=
